<mxfile host="app.diagrams.net" agent="Mozilla/5.0 (Macintosh; Intel Mac OS X 10_15_7) AppleWebKit/537.36 (KHTML, like Gecko) Chrome/133.0.0.0 Safari/537.36" version="26.0.14">
  <diagram name="第 1 页" id="hvfTpmLWFQ4rX_9oERoe">
    <mxGraphModel dx="323" dy="214" grid="1" gridSize="10" guides="1" tooltips="1" connect="1" arrows="1" fold="1" page="1" pageScale="1" pageWidth="827" pageHeight="1169" math="0" shadow="0">
      <root>
        <mxCell id="0" />
        <mxCell id="1" parent="0" />
        <mxCell id="FwiGgOwcliV5bMdkkI5m-4" style="edgeStyle=orthogonalEdgeStyle;rounded=0;orthogonalLoop=1;jettySize=auto;html=1;entryX=0.5;entryY=0;entryDx=0;entryDy=0;" edge="1" parent="1" source="FwiGgOwcliV5bMdkkI5m-1" target="FwiGgOwcliV5bMdkkI5m-2">
          <mxGeometry relative="1" as="geometry" />
        </mxCell>
        <mxCell id="FwiGgOwcliV5bMdkkI5m-1" value="开始" style="rounded=1;whiteSpace=wrap;html=1;" vertex="1" parent="1">
          <mxGeometry x="359" y="90" width="80" height="30" as="geometry" />
        </mxCell>
        <mxCell id="FwiGgOwcliV5bMdkkI5m-5" style="edgeStyle=orthogonalEdgeStyle;rounded=0;orthogonalLoop=1;jettySize=auto;html=1;entryX=0.5;entryY=0;entryDx=0;entryDy=0;" edge="1" parent="1" source="FwiGgOwcliV5bMdkkI5m-2" target="FwiGgOwcliV5bMdkkI5m-3">
          <mxGeometry relative="1" as="geometry" />
        </mxCell>
        <mxCell id="FwiGgOwcliV5bMdkkI5m-2" value="使用SHA-256计算视频Hash值" style="rounded=0;whiteSpace=wrap;html=1;" vertex="1" parent="1">
          <mxGeometry x="304" y="150" width="190" height="30" as="geometry" />
        </mxCell>
        <mxCell id="FwiGgOwcliV5bMdkkI5m-56" style="edgeStyle=orthogonalEdgeStyle;rounded=0;orthogonalLoop=1;jettySize=auto;html=1;entryX=0.5;entryY=0;entryDx=0;entryDy=0;" edge="1" parent="1" source="FwiGgOwcliV5bMdkkI5m-3" target="FwiGgOwcliV5bMdkkI5m-11">
          <mxGeometry relative="1" as="geometry">
            <Array as="points">
              <mxPoint x="285" y="230" />
            </Array>
          </mxGeometry>
        </mxCell>
        <mxCell id="FwiGgOwcliV5bMdkkI5m-59" style="edgeStyle=orthogonalEdgeStyle;rounded=0;orthogonalLoop=1;jettySize=auto;html=1;entryX=0.5;entryY=0;entryDx=0;entryDy=0;" edge="1" parent="1" source="FwiGgOwcliV5bMdkkI5m-3" target="FwiGgOwcliV5bMdkkI5m-7">
          <mxGeometry relative="1" as="geometry">
            <Array as="points">
              <mxPoint x="517" y="230" />
            </Array>
          </mxGeometry>
        </mxCell>
        <mxCell id="FwiGgOwcliV5bMdkkI5m-3" value="Hash值是否存在" style="rhombus;whiteSpace=wrap;html=1;" vertex="1" parent="1">
          <mxGeometry x="339" y="206" width="120" height="50" as="geometry" />
        </mxCell>
        <mxCell id="FwiGgOwcliV5bMdkkI5m-10" style="edgeStyle=orthogonalEdgeStyle;rounded=0;orthogonalLoop=1;jettySize=auto;html=1;entryX=0.5;entryY=0;entryDx=0;entryDy=0;" edge="1" parent="1" source="FwiGgOwcliV5bMdkkI5m-7" target="FwiGgOwcliV5bMdkkI5m-8">
          <mxGeometry relative="1" as="geometry" />
        </mxCell>
        <mxCell id="FwiGgOwcliV5bMdkkI5m-7" value="存储记录表&lt;span style=&quot;background-color: transparent; color: light-dark(rgb(0, 0, 0), rgb(255, 255, 255));&quot;&gt;添加文件引用&lt;/span&gt;" style="rounded=0;whiteSpace=wrap;html=1;" vertex="1" parent="1">
          <mxGeometry x="446" y="250" width="140.64" height="24" as="geometry" />
        </mxCell>
        <mxCell id="FwiGgOwcliV5bMdkkI5m-50" style="edgeStyle=orthogonalEdgeStyle;rounded=0;orthogonalLoop=1;jettySize=auto;html=1;entryX=0.5;entryY=0;entryDx=0;entryDy=0;" edge="1" parent="1" source="FwiGgOwcliV5bMdkkI5m-8" target="FwiGgOwcliV5bMdkkI5m-46">
          <mxGeometry relative="1" as="geometry" />
        </mxCell>
        <mxCell id="FwiGgOwcliV5bMdkkI5m-8" value="记录日志" style="rounded=0;whiteSpace=wrap;html=1;" vertex="1" parent="1">
          <mxGeometry x="463.72" y="369" width="105" height="20" as="geometry" />
        </mxCell>
        <mxCell id="FwiGgOwcliV5bMdkkI5m-39" value="结束" style="rounded=1;whiteSpace=wrap;html=1;" vertex="1" parent="1">
          <mxGeometry x="430" y="720" width="80" height="30" as="geometry" />
        </mxCell>
        <mxCell id="FwiGgOwcliV5bMdkkI5m-46" value="返回上传结果" style="rounded=0;whiteSpace=wrap;html=1;" vertex="1" parent="1">
          <mxGeometry x="463.72" y="439" width="105" height="20" as="geometry" />
        </mxCell>
        <mxCell id="FwiGgOwcliV5bMdkkI5m-55" value="" style="group" vertex="1" connectable="0" parent="1">
          <mxGeometry x="199.99999999999997" y="250" width="169.34999999999997" height="400" as="geometry" />
        </mxCell>
        <mxCell id="FwiGgOwcliV5bMdkkI5m-14" style="edgeStyle=orthogonalEdgeStyle;rounded=0;orthogonalLoop=1;jettySize=auto;html=1;entryX=0.5;entryY=0;entryDx=0;entryDy=0;" edge="1" parent="FwiGgOwcliV5bMdkkI5m-55" source="FwiGgOwcliV5bMdkkI5m-11" target="FwiGgOwcliV5bMdkkI5m-13">
          <mxGeometry relative="1" as="geometry" />
        </mxCell>
        <mxCell id="FwiGgOwcliV5bMdkkI5m-11" value="将文件进行分为N片" style="rounded=0;whiteSpace=wrap;html=1;" vertex="1" parent="FwiGgOwcliV5bMdkkI5m-55">
          <mxGeometry x="24.660000000000025" width="120" height="24" as="geometry" />
        </mxCell>
        <mxCell id="FwiGgOwcliV5bMdkkI5m-16" style="edgeStyle=orthogonalEdgeStyle;rounded=0;orthogonalLoop=1;jettySize=auto;html=1;entryX=0.5;entryY=0;entryDx=0;entryDy=0;" edge="1" parent="FwiGgOwcliV5bMdkkI5m-55" source="FwiGgOwcliV5bMdkkI5m-13" target="FwiGgOwcliV5bMdkkI5m-15">
          <mxGeometry relative="1" as="geometry" />
        </mxCell>
        <mxCell id="FwiGgOwcliV5bMdkkI5m-13" value="按顺序上传分片" style="rounded=0;whiteSpace=wrap;html=1;" vertex="1" parent="FwiGgOwcliV5bMdkkI5m-55">
          <mxGeometry x="34.660000000000025" y="62" width="100" height="20" as="geometry" />
        </mxCell>
        <mxCell id="FwiGgOwcliV5bMdkkI5m-25" style="edgeStyle=orthogonalEdgeStyle;rounded=0;orthogonalLoop=1;jettySize=auto;html=1;entryX=0.5;entryY=0;entryDx=0;entryDy=0;" edge="1" parent="FwiGgOwcliV5bMdkkI5m-55" source="FwiGgOwcliV5bMdkkI5m-15" target="FwiGgOwcliV5bMdkkI5m-24">
          <mxGeometry relative="1" as="geometry" />
        </mxCell>
        <mxCell id="FwiGgOwcliV5bMdkkI5m-29" value="是" style="edgeLabel;html=1;align=center;verticalAlign=middle;resizable=0;points=[];" vertex="1" connectable="0" parent="FwiGgOwcliV5bMdkkI5m-25">
          <mxGeometry x="0.1884" relative="1" as="geometry">
            <mxPoint y="-3" as="offset" />
          </mxGeometry>
        </mxCell>
        <mxCell id="FwiGgOwcliV5bMdkkI5m-27" style="edgeStyle=orthogonalEdgeStyle;rounded=0;orthogonalLoop=1;jettySize=auto;html=1;entryX=0.5;entryY=0;entryDx=0;entryDy=0;" edge="1" parent="FwiGgOwcliV5bMdkkI5m-55" source="FwiGgOwcliV5bMdkkI5m-15" target="FwiGgOwcliV5bMdkkI5m-13">
          <mxGeometry relative="1" as="geometry">
            <Array as="points">
              <mxPoint x="154.66000000000003" y="134" />
              <mxPoint x="154.66000000000003" y="42" />
              <mxPoint x="84.66000000000003" y="42" />
            </Array>
          </mxGeometry>
        </mxCell>
        <mxCell id="FwiGgOwcliV5bMdkkI5m-28" value="否" style="edgeLabel;html=1;align=center;verticalAlign=middle;resizable=0;points=[];" vertex="1" connectable="0" parent="FwiGgOwcliV5bMdkkI5m-27">
          <mxGeometry x="-0.8644" y="1" relative="1" as="geometry">
            <mxPoint as="offset" />
          </mxGeometry>
        </mxCell>
        <mxCell id="FwiGgOwcliV5bMdkkI5m-15" value="分片上传&lt;div&gt;成功&lt;/div&gt;" style="rhombus;whiteSpace=wrap;html=1;" vertex="1" parent="FwiGgOwcliV5bMdkkI5m-55">
          <mxGeometry x="47.160000000000025" y="109" width="75" height="50" as="geometry" />
        </mxCell>
        <mxCell id="FwiGgOwcliV5bMdkkI5m-30" style="edgeStyle=orthogonalEdgeStyle;rounded=0;orthogonalLoop=1;jettySize=auto;html=1;entryX=0.5;entryY=0;entryDx=0;entryDy=0;" edge="1" parent="FwiGgOwcliV5bMdkkI5m-55" source="FwiGgOwcliV5bMdkkI5m-21" target="FwiGgOwcliV5bMdkkI5m-13">
          <mxGeometry relative="1" as="geometry">
            <Array as="points">
              <mxPoint x="14.660000000000025" y="257" />
              <mxPoint x="14.660000000000025" y="42" />
              <mxPoint x="84.66000000000003" y="42" />
            </Array>
          </mxGeometry>
        </mxCell>
        <mxCell id="FwiGgOwcliV5bMdkkI5m-31" value="否" style="edgeLabel;html=1;align=center;verticalAlign=middle;resizable=0;points=[];" vertex="1" connectable="0" parent="FwiGgOwcliV5bMdkkI5m-30">
          <mxGeometry x="-0.9296" y="1" relative="1" as="geometry">
            <mxPoint as="offset" />
          </mxGeometry>
        </mxCell>
        <mxCell id="FwiGgOwcliV5bMdkkI5m-35" style="edgeStyle=orthogonalEdgeStyle;rounded=0;orthogonalLoop=1;jettySize=auto;html=1;entryX=0.5;entryY=0;entryDx=0;entryDy=0;" edge="1" parent="FwiGgOwcliV5bMdkkI5m-55" source="FwiGgOwcliV5bMdkkI5m-21" target="FwiGgOwcliV5bMdkkI5m-33">
          <mxGeometry relative="1" as="geometry" />
        </mxCell>
        <mxCell id="FwiGgOwcliV5bMdkkI5m-21" value="是否最后&lt;div&gt;一片&lt;/div&gt;" style="rhombus;whiteSpace=wrap;html=1;" vertex="1" parent="FwiGgOwcliV5bMdkkI5m-55">
          <mxGeometry x="47.170000000000016" y="232" width="75" height="50" as="geometry" />
        </mxCell>
        <mxCell id="FwiGgOwcliV5bMdkkI5m-26" style="edgeStyle=orthogonalEdgeStyle;rounded=0;orthogonalLoop=1;jettySize=auto;html=1;entryX=0.5;entryY=0;entryDx=0;entryDy=0;" edge="1" parent="FwiGgOwcliV5bMdkkI5m-55" source="FwiGgOwcliV5bMdkkI5m-24" target="FwiGgOwcliV5bMdkkI5m-21">
          <mxGeometry relative="1" as="geometry" />
        </mxCell>
        <mxCell id="FwiGgOwcliV5bMdkkI5m-24" value="分片索引+1" style="rounded=0;whiteSpace=wrap;html=1;" vertex="1" parent="FwiGgOwcliV5bMdkkI5m-55">
          <mxGeometry x="41.85000000000002" y="192" width="85.63" height="20" as="geometry" />
        </mxCell>
        <mxCell id="FwiGgOwcliV5bMdkkI5m-52" style="edgeStyle=orthogonalEdgeStyle;rounded=0;orthogonalLoop=1;jettySize=auto;html=1;entryX=0.5;entryY=0;entryDx=0;entryDy=0;" edge="1" parent="FwiGgOwcliV5bMdkkI5m-55" source="FwiGgOwcliV5bMdkkI5m-33" target="FwiGgOwcliV5bMdkkI5m-34">
          <mxGeometry relative="1" as="geometry" />
        </mxCell>
        <mxCell id="FwiGgOwcliV5bMdkkI5m-33" value="组合分片并SHA-256计算Hash值" style="rounded=0;whiteSpace=wrap;html=1;fontSize=11;" vertex="1" parent="FwiGgOwcliV5bMdkkI5m-55">
          <mxGeometry y="310" width="169.35" height="22" as="geometry" />
        </mxCell>
        <mxCell id="FwiGgOwcliV5bMdkkI5m-34" value="Hash值&lt;div&gt;一致&lt;/div&gt;" style="rhombus;whiteSpace=wrap;html=1;" vertex="1" parent="FwiGgOwcliV5bMdkkI5m-55">
          <mxGeometry x="47.170000000000016" y="350" width="75" height="50" as="geometry" />
        </mxCell>
      </root>
    </mxGraphModel>
  </diagram>
</mxfile>
